<svg xmlns="http://www.w3.org/2000/svg" width="77" height="77" viewBox="0 0 77 77">
  <g id="Best_exhibits_icon" data-name="Best exhibits icon" transform="translate(-0.298)">
    <path id="Union_6" data-name="Union 6" d="M38.57,77A7.942,7.942,0,0,1,34,75.611a5.416,5.416,0,0,1-2.3-3.433,5.794,5.794,0,0,1-5.042,2.5,8.292,8.292,0,0,1-3.209-.668c-2.885-1.224-4.753-3.874-4.543-6.446a5.3,5.3,0,0,1-2.333.514,7.628,7.628,0,0,1-5.287-2.339c-2.2-2.2-2.947-5.347-1.813-7.648-.109.006-.206.009-.294.009-2.463,0-4.9-1.832-6.054-4.558A7.973,7.973,0,0,1,2.6,48.878a5.49,5.49,0,0,1,2.142-3.455A5.452,5.452,0,0,1,1.364,43.1,7.956,7.956,0,0,1,0,38.57c0-3.5,2.118-6.459,4.927-6.885-2.38-1.5-3.154-5.045-1.8-8.234,1.157-2.727,3.59-4.559,6.055-4.559.092,0,.185,0,.276.008a5.776,5.776,0,0,1-.335-3.807,7.974,7.974,0,0,1,2.165-3.8,7.63,7.63,0,0,1,5.288-2.339,5.3,5.3,0,0,1,2.324.51,5.8,5.8,0,0,1,1.132-3.633,7.977,7.977,0,0,1,3.419-2.7,8.293,8.293,0,0,1,3.209-.668,5.806,5.806,0,0,1,5.025,2.468C32.111,2.118,35.071,0,38.57,0A7.956,7.956,0,0,1,43.1,1.364a5.451,5.451,0,0,1,2.322,3.381,5.9,5.9,0,0,1,4.9-2.286,8.3,8.3,0,0,1,3.209.668,7.976,7.976,0,0,1,3.424,2.706,5.79,5.79,0,0,1,1.125,3.642,5.286,5.286,0,0,1,2.36-.527,7.628,7.628,0,0,1,5.288,2.34c2.189,2.19,2.94,5.324,1.826,7.62.136-.011.268-.016.391-.016,2.464,0,4.9,1.832,6.054,4.559,1.362,3.208.577,6.755-1.827,8.251A5.417,5.417,0,0,1,75.611,34,7.942,7.942,0,0,1,77,38.57c0,3.378-1.953,6.251-4.643,6.832a5.476,5.476,0,0,1,2.169,3.457,7.965,7.965,0,0,1-.52,4.678c-1.158,2.727-3.591,4.559-6.054,4.559-.136,0-.274-.006-.409-.017,1.141,2.3.4,5.451-1.808,7.656a7.628,7.628,0,0,1-5.287,2.339,5.284,5.284,0,0,1-2.369-.531c.219,2.577-1.649,5.235-4.541,6.463a8.3,8.3,0,0,1-3.209.668A5.883,5.883,0,0,1,45.4,72.356C44.82,75.047,41.946,77,38.57,77ZM38.5,16.5a21.931,21.931,0,1,0,8.563,1.729A21.864,21.864,0,0,0,38.5,16.5Z" transform="translate(0.298)" fill="#df633b"/>
    <rect id="Rectangle_32" data-name="Rectangle 32" width="40" height="40" rx="20" transform="translate(19.012 18.47)" fill="#df633b"/>
    <path id="Icon_ionic-md-checkmark" data-name="Icon ionic-md-checkmark" d="M7.989,16.273,3.842,12.12a1.009,1.009,0,0,0-1.47,0,.905.905,0,0,0,0,1.4l5.617,5.6L20.007,7.116a.909.909,0,0,0,0-1.4,1.013,1.013,0,0,0-1.47,0Z" transform="translate(27.793 26.212)" fill="#fff" stroke="#fff" stroke-width="2"/>
  </g>
</svg>
