<svg id="Female_Icon" data-name="Female Icon" xmlns="http://www.w3.org/2000/svg" width="61.413" height="88.635" viewBox="0 0 61.413 88.635">
  <g id="Path_82" data-name="Path 82" fill="none">
    <path d="M30.706,0A30.706,30.706,0,1,1,0,30.706,30.706,30.706,0,0,1,30.706,0Z" stroke="none"/>
    <path d="M 30.70629692077637 7.000003814697266 C 17.63460540771484 7.000003814697266 7.000003814697266 17.63460540771484 7.000003814697266 30.70629692077637 C 7.000003814697266 43.77798843383789 17.63460540771484 54.41259002685547 30.70629692077637 54.41259002685547 C 43.77798843383789 54.41259002685547 54.41259002685547 43.77798843383789 54.41259002685547 30.70629692077637 C 54.41259002685547 17.63460540771484 43.77798843383789 7.000003814697266 30.70629692077637 7.000003814697266 M 30.70629692077637 3.814697265625e-06 C 47.66491317749023 3.814697265625e-06 61.41259002685547 13.7476806640625 61.41259002685547 30.70629692077637 C 61.41259002685547 47.66491317749023 47.66491317749023 61.41259002685547 30.70629692077637 61.41259002685547 C 13.7476806640625 61.41259002685547 3.814697265625e-06 47.66491317749023 3.814697265625e-06 30.70629692077637 C 3.814697265625e-06 13.7476806640625 13.7476806640625 3.814697265625e-06 30.70629692077637 3.814697265625e-06 Z" stroke="none" fill="#ea4983"/>
  </g>
  <g id="Icon_feather-arrow-up" data-name="Icon feather-arrow-up" transform="translate(30.706 59.342)">
    <path id="Path_83" data-name="Path 83" d="M18,33.293V7.5" transform="translate(-18 -7.5)" fill="none" stroke="#ea4983" stroke-linecap="round" stroke-linejoin="round" stroke-width="7"/>
  </g>
  <g id="Icon_feather-arrow-up-2" data-name="Icon feather-arrow-up" transform="translate(43.603 72.239) rotate(90)">
    <path id="Path_83-2" data-name="Path 83" d="M0,25.793V0" transform="translate(0 0)" fill="none" stroke="#ea4983" stroke-linecap="round" stroke-linejoin="round" stroke-width="7"/>
  </g>
</svg>
