<svg id="Knowledge_and_entertainment_icon" data-name="Knowledge and entertainment icon" xmlns="http://www.w3.org/2000/svg" width="84.177" height="83.512" viewBox="0 0 84.177 83.512">
  <g id="Group_27" data-name="Group 27" transform="translate(0 26.391)">
    <circle id="Ellipse_8" data-name="Ellipse 8" cx="28.561" cy="28.561" r="28.561" fill="#f4b900"/>
    <circle id="Ellipse_9" data-name="Ellipse 9" cx="2.609" cy="2.609" r="2.609" transform="translate(15.887 18.638)" fill="#503d01"/>
    <circle id="Ellipse_10" data-name="Ellipse 10" cx="2.609" cy="2.609" r="2.609" transform="translate(36.761 18.638)" fill="#503d01"/>
    <path id="Path_29" data-name="Path 29" d="M23.2,42A11.6,11.6,0,1,1,0,42Z" transform="translate(16.962 -8.411)" fill="#503d01"/>
  </g>
  <g id="Group_29" data-name="Group 29" transform="translate(57.121)">
    <path id="Path_34" data-name="Path 34" d="M-3680.762-3435.084l-8.686-18.091q-.234-.443-.435-.906l-.043-.09h0a13.48,13.48,0,0,1-1.078-5.3A13.528,13.528,0,0,1-3677.473-3473a13.528,13.528,0,0,1,13.528,13.528,13.486,13.486,0,0,1-1.082,5.31h.006l-.064.133q-.181.411-.387.806l-8.712,18.139a3.588,3.588,0,0,1-3.289,2.147A3.588,3.588,0,0,1-3680.762-3435.084Z" transform="translate(3691 3473)" fill="#f4b903"/>
    <path id="Union_3" data-name="Union 3" d="M2.183,8.728a2.182,2.182,0,1,1,0-4.364H16.146a2.182,2.182,0,0,1,0,4.364Zm0-4.364A2.182,2.182,0,1,1,2.183,0H16.146a2.182,2.182,0,0,1,0,4.364Z" transform="translate(4.364 27.928)" fill="#503d01"/>
    <g id="Rectangle_28" data-name="Rectangle 28" transform="translate(11.346 20.073)" fill="none" stroke="#503d01" stroke-width="1.8">
      <rect width="4.364" height="9.6" stroke="none"/>
      <rect x="0.9" y="0.9" width="2.564" height="7.8" fill="none"/>
    </g>
    <g id="Rectangle_29" data-name="Rectangle 29" transform="translate(7.855 16.582)" fill="#f4b903" stroke="#503d01" stroke-width="1.8">
      <path d="M2.618,0h0A2.618,2.618,0,0,1,5.237,2.618V5.237a0,0,0,0,1,0,0H2.618A2.618,2.618,0,0,1,0,2.618v0A2.618,2.618,0,0,1,2.618,0Z" stroke="none"/>
      <path d="M2.618.9h0A1.718,1.718,0,0,1,4.337,2.618V4.337a0,0,0,0,1,0,0H2.618A1.718,1.718,0,0,1,.9,2.618v0A1.718,1.718,0,0,1,2.618.9Z" fill="none"/>
    </g>
    <g id="Rectangle_30" data-name="Rectangle 30" transform="translate(13.964 16.582)" fill="#f4b903" stroke="#503d01" stroke-width="1.8">
      <path d="M2.618,0h0A2.618,2.618,0,0,1,5.237,2.618v0A2.618,2.618,0,0,1,2.618,5.237H0a0,0,0,0,1,0,0V2.618A2.618,2.618,0,0,1,2.618,0Z" stroke="none"/>
      <path d="M2.618.9h0A1.718,1.718,0,0,1,4.337,2.618v0A1.718,1.718,0,0,1,2.618,4.337H.9a0,0,0,0,1,0,0V2.618A1.718,1.718,0,0,1,2.618.9Z" fill="none"/>
    </g>
    <rect id="Rectangle_25" data-name="Rectangle 25" width="2.618" height="2.618" rx="1.309" transform="translate(12.219 31.419)" fill="#f4b903"/>
  </g>
</svg>
