<svg xmlns="http://www.w3.org/2000/svg" width="32.072" height="93" viewBox="0 0 32.072 93">
  <path id="Male_icon" data-name="Male icon" d="M288.267-3380a2,2,0,0,1-2-2l-4.3-32.97H280a5.037,5.037,0,0,1-5-5.072l3.267-26.885a5.037,5.037,0,0,1,5-5.073h16a5.037,5.037,0,0,1,5,5.073l2.806,26.885a5.037,5.037,0,0,1-5,5.072h-1.7L295.767-3382a2,2,0,0,1-2,2Zm-6-84.25a8.75,8.75,0,0,1,8.75-8.75,8.75,8.75,0,0,1,8.75,8.75,8.75,8.75,0,0,1-8.75,8.75A8.75,8.75,0,0,1,282.267-3464.25Z" transform="translate(-275 3473)" fill="#4996d4"/>
</svg>
