<svg xmlns="http://www.w3.org/2000/svg" width="67.92" height="73.116" viewBox="0 0 67.92 73.116">
  <g id="Group_62" data-name="Group 62" transform="translate(0 3.95)">
    <g id="Path_79" data-name="Path 79" transform="translate(0 5)" fill="none">
      <path d="M32.083,0A32.083,32.083,0,1,1,0,32.083,32.083,32.083,0,0,1,32.083,0Z" stroke="none"/>
      <path d="M 32.08317947387695 6.999996185302734 C 18.25227355957031 6.999996185302734 6.999996185302734 18.25227355957031 6.999996185302734 32.08317947387695 C 6.999996185302734 45.91408538818359 18.25227355957031 57.16636276245117 32.08317947387695 57.16636276245117 C 45.91408538818359 57.16636276245117 57.16636276245117 45.91408538818359 57.16636276245117 32.08317947387695 C 57.16636276245117 18.25227355957031 45.91408538818359 6.999996185302734 32.08317947387695 6.999996185302734 M 32.08317947387695 -7.62939453125e-06 C 49.80222702026367 -7.62939453125e-06 64.16636657714844 14.36413192749023 64.16636657714844 32.08317947387695 C 64.16636657714844 49.80222702026367 49.80222702026367 64.16636657714844 32.08317947387695 64.16636657714844 C 14.36413192749023 64.16636657714844 -7.62939453125e-06 49.80222702026367 -7.62939453125e-06 32.08317947387695 C -7.62939453125e-06 14.36413192749023 14.36413192749023 -7.62939453125e-06 32.08317947387695 -7.62939453125e-06 Z" stroke="none" fill="#4996d4"/>
    </g>
    <g id="Icon_feather-arrow-down-left" data-name="Icon feather-arrow-down-left" transform="translate(51.629)">
      <path id="Path_80" data-name="Path 80" d="M10.5,21.771,21.771,10.5" transform="translate(-10.43 -9.5)" fill="none" stroke="#4996d4" stroke-linecap="round" stroke-linejoin="round" stroke-width="7"/>
      <path id="Path_81" data-name="Path 81" d="M10.5,10.5H23.037V23.037" transform="translate(-10.5 -10.5)" fill="none" stroke="#4996d4" stroke-linecap="round" stroke-linejoin="round" stroke-width="7"/>
    </g>
  </g>
</svg>
