<svg xmlns="http://www.w3.org/2000/svg" width="59" height="59" viewBox="0 0 59 59">
  <path id="None_icon" data-name="None icon" d="M298.555-3414.6a29.359,29.359,0,0,1-5.537-1.719,29.526,29.526,0,0,1-5.011-2.72,29.723,29.723,0,0,1-4.366-3.6,29.715,29.715,0,0,1-3.6-4.366,29.5,29.5,0,0,1-2.72-5.011,29.339,29.339,0,0,1-1.719-5.538,29.717,29.717,0,0,1-.6-5.945,29.717,29.717,0,0,1,.6-5.945,29.339,29.339,0,0,1,1.719-5.538,29.475,29.475,0,0,1,2.72-5.011,29.7,29.7,0,0,1,3.6-4.366,29.707,29.707,0,0,1,4.366-3.6,29.51,29.51,0,0,1,5.011-2.72,29.346,29.346,0,0,1,5.537-1.719,29.7,29.7,0,0,1,5.945-.6,29.7,29.7,0,0,1,5.945.6,29.354,29.354,0,0,1,5.538,1.719,29.511,29.511,0,0,1,5.011,2.72,29.7,29.7,0,0,1,4.366,3.6,29.7,29.7,0,0,1,3.6,4.366,29.473,29.473,0,0,1,2.72,5.011,29.337,29.337,0,0,1,1.719,5.538,29.719,29.719,0,0,1,.6,5.945,29.72,29.72,0,0,1-.6,5.945,29.337,29.337,0,0,1-1.719,5.538,29.493,29.493,0,0,1-2.72,5.011,29.711,29.711,0,0,1-3.6,4.366,29.735,29.735,0,0,1-4.366,3.6,29.527,29.527,0,0,1-5.011,2.72,29.362,29.362,0,0,1-5.538,1.719,29.717,29.717,0,0,1-5.945.6A29.717,29.717,0,0,1,298.555-3414.6Zm-14.168-42.462a24.262,24.262,0,0,0-2.236,4.12,24.129,24.129,0,0,0-1.413,4.553,24.427,24.427,0,0,0-.493,4.888,24.428,24.428,0,0,0,.493,4.888,24.14,24.14,0,0,0,1.413,4.553,24.269,24.269,0,0,0,2.236,4.12,24.434,24.434,0,0,0,2.962,3.59,24.431,24.431,0,0,0,3.59,2.962,24.269,24.269,0,0,0,4.12,2.236,24.123,24.123,0,0,0,4.553,1.413,24.445,24.445,0,0,0,4.889.493,24.444,24.444,0,0,0,4.888-.493,24.123,24.123,0,0,0,4.553-1.413,24.264,24.264,0,0,0,4.12-2.236q.88-.594,1.708-1.266l-34.116-34.116Q284.983-3457.943,284.387-3457.062Zm39.077,28.686q.606-.759,1.149-1.562a24.254,24.254,0,0,0,2.236-4.12,24.156,24.156,0,0,0,1.413-4.553,24.446,24.446,0,0,0,.493-4.888,24.441,24.441,0,0,0-.493-4.888,24.145,24.145,0,0,0-1.413-4.553,24.266,24.266,0,0,0-2.236-4.12,24.448,24.448,0,0,0-2.962-3.59,24.442,24.442,0,0,0-3.59-2.962,24.239,24.239,0,0,0-4.12-2.236,24.152,24.152,0,0,0-4.553-1.414,24.441,24.441,0,0,0-4.888-.493,24.441,24.441,0,0,0-4.889.493,24.142,24.142,0,0,0-4.553,1.414,24.242,24.242,0,0,0-4.12,2.236q-.8.542-1.563,1.149Z" transform="translate(-275 3473)" fill="#d2403a"/>
</svg>
