<svg xmlns="http://www.w3.org/2000/svg" width="52" height="87" viewBox="0 0 52 87">
  <g id="Others_icon" data-name="Others icon" transform="translate(-3246 -1132)">
    <path id="Path_78" data-name="Path 78" d="M15.5,72.5a10,10,0,1,1,10,10A10.012,10.012,0,0,1,15.5,72.5ZM25.5,49v0Zm-9.257-3.267A22.578,22.578,0,1,1,25,47.5,22.433,22.433,0,0,1,16.242,45.733Z" transform="translate(3247 1133)" fill="none" stroke="#bf81ae" stroke-width="7"/>
    <g id="Path_77" data-name="Path 77" transform="translate(3260 1146)" fill="none">
      <path d="M12.5,0A12.5,12.5,0,1,1,0,12.5,12.5,12.5,0,0,1,12.5,0Z" stroke="none"/>
      <path d="M 12.50003910064697 6.999994277954102 C 9.467306137084961 6.999994277954102 6.999994277954102 9.467306137084961 6.999994277954102 12.50003910064697 C 6.999994277954102 15.53277206420898 9.467306137084961 18.00007247924805 12.50003910064697 18.00007247924805 C 15.53277206420898 18.00007247924805 18.00007247924805 15.53277206420898 18.00007247924805 12.50003910064697 C 18.00007247924805 9.467306137084961 15.53277206420898 6.999994277954102 12.50003910064697 6.999994277954102 M 12.50003910064697 -5.7220458984375e-06 C 19.40361785888672 -5.7220458984375e-06 25.00007247924805 5.596462249755859 25.00007247924805 12.50003910064697 C 25.00007247924805 19.40361785888672 19.40361785888672 25.00007247924805 12.50003910064697 25.00007247924805 C 5.596462249755859 25.00007247924805 -5.7220458984375e-06 19.40361785888672 -5.7220458984375e-06 12.50003910064697 C -5.7220458984375e-06 5.596462249755859 5.596462249755859 -5.7220458984375e-06 12.50003910064697 -5.7220458984375e-06 Z" stroke="none" fill="#bf81ae"/>
    </g>
  </g>
</svg>
