<svg xmlns="http://www.w3.org/2000/svg" width="45.025" height="56.865" viewBox="0 0 45.025 56.865">
  <g id="Perfect_icon" data-name="Perfect icon" transform="translate(-8049.765 -4667.135)">
    <path id="Path_86" data-name="Path 86" d="M16.057,51.665c-2.142,0-15.409-20.438-13.274-21.434a4.817,4.817,0,0,1,6.4,2.33l1.1,2.367c.123.263,2.766,7.852,9.11,7.554,4.253-.2,7.875-8.009,7.875-8.009s-5.843-4.458-8.23-5.1S9.55,29.7,9.55,29.7a4,4,0,0,1-4.384-2.959,3.645,3.645,0,0,1,2.808-4.324l9.209-1.958a3.634,3.634,0,0,1,1.7.044,3.723,3.723,0,0,1,.4.113l9.62,3.313-8.929-12.29a3.645,3.645,0,0,1,3.766-5.7l-.143-.2a3.646,3.646,0,0,1,5.972-4.182l8.812,12.585.056.082a3.641,3.641,0,0,1,.632,1.132l6.952,20.189a4.418,4.418,0,0,1,.031,2.611L40.8,53.418a3.643,3.643,0,0,1-.523.992,3.647,3.647,0,0,1-3.447,2.455Z" transform="translate(8048.533 4667.135)" fill="#db992d"/>
    <path id="Path_87" data-name="Path 87" d="M17.183,56.865a5.915,5.915,0,0,1-4.543-2.317S5.874,45.632,4.247,42.482a31.591,31.591,0,0,1-1.584-3.664,24.871,24.871,0,0,1-.938-2.958c-.564-2.2-1.077-4.633,1.058-5.629a4.817,4.817,0,0,1,6.4,2.33l1.1,2.367c.123.263,2.766,7.852,9.11,7.554,4.253-.2,7.875-8.009,7.875-8.009s-5.843-4.458-8.23-5.1S9.55,29.7,9.55,29.7a4,4,0,0,1-4.384-2.959,3.645,3.645,0,0,1,2.808-4.324l9.209-1.958a3.634,3.634,0,0,1,1.7.044,3.723,3.723,0,0,1,.4.113l9.62,3.313,3.615,1.19-1.89-8.565L23.744,5.941l-.143-.2a3.646,3.646,0,0,1,5.972-4.182l8.812,12.585.056.082a3.641,3.641,0,0,1,.632,1.132l6.952,20.189a4.418,4.418,0,0,1,.031,2.611L40.8,53.418a3.643,3.643,0,0,1-.523.992,3.647,3.647,0,0,1-3.447,2.455Z" transform="translate(8048.533 4667.135)" fill="#f4b903"/>
  </g>
</svg>
