<svg xmlns="http://www.w3.org/2000/svg" width="69.96" height="73.488" viewBox="0 0 69.96 73.488">
  <g id="Prefer_not_to_say_icon" data-name="Prefer not to say icon" transform="translate(-872.52 -715.756)">
    <path id="Exclusion_4" data-name="Exclusion 4" d="M20.988,70.28a3.231,3.231,0,0,1,.057-.6l-.024-.018s.024-.061.067-.174a3.18,3.18,0,0,1,.2-.568,27.1,27.1,0,0,0,1.445-6.509c.193-2.811.078-6.706.024-8.166H14.575A14.578,14.578,0,0,1,0,39.66V14.581A14.578,14.578,0,0,1,14.575,0h40.81A14.578,14.578,0,0,1,69.96,14.581V39.66A14.577,14.577,0,0,1,55.386,54.241H44.2c-1.095,1.388-3.993,5.01-6.89,8.166a77.239,77.239,0,0,1-7.345,7.252c-1.762,1.584-2.95,2.512-3.631,3.009a3.219,3.219,0,0,1-.67.464l-.037.023,0,0a3.208,3.208,0,0,1-4.637-2.872Z" transform="translate(872.521 715.756)" fill="#d2403a"/>
    <g id="Group_53" data-name="Group 53" transform="translate(-0.719 -0.729)">
      <path id="Path_71" data-name="Path 71" d="M0,0H20" transform="translate(915.652 737.229) rotate(138)" fill="none" stroke="#fff" stroke-linecap="round" stroke-width="3.5"/>
      <path id="Path_72" data-name="Path 72" d="M0,0H20" transform="translate(900.789 737.228) rotate(42)" fill="none" stroke="#fff" stroke-linecap="round" stroke-width="3.5"/>
    </g>
  </g>
</svg>
