<svg xmlns="http://www.w3.org/2000/svg" width="58.008" height="79.829" viewBox="0 0 58.008 79.829">
  <g id="Touch_icon" data-name="Touch icon" transform="translate(2.828 2.831)">
    <path id="Path_45" data-name="Path 45" d="M1.309,0C11.235,0,18.8,8.645,18.6,18.359S10.834,35.843,0,35.86" transform="matrix(-0.695, -0.719, 0.719, -0.695, 12.923, 38.293)" fill="none" stroke="#1015be" stroke-linecap="round" stroke-width="4"/>
    <path id="Icon_ionic-ios-hand" data-name="Icon ionic-ios-hand" d="M50.131,24.211a3.039,3.039,0,0,0-3.062,2.99v2.511a1.292,1.292,0,0,1-2.583,0V19.654a3.063,3.063,0,0,0-6.125,0V24.69a1.292,1.292,0,0,1-2.583,0V17.143a3.063,3.063,0,0,0-6.125,0V27.2a1.292,1.292,0,0,1-2.583,0V8.8a3.063,3.063,0,0,0-6.125,0V40.481l-4.035-3.425c-3.788-3.295-7-4.7-9.608-2.279-1.756,1.713,1,4.485,3.89,7.721,2.787,3.12,10.16,13.338,16.444,17.024a11.331,11.331,0,0,0,5.893,1.655h8.3c6.691,0,11.379-5.5,11.379-13.527V27.2A3.061,3.061,0,0,0,50.131,24.211Z" transform="translate(1.973 15.821)" fill="#f4b903"/>
    <path id="Path_46" data-name="Path 46" d="M10.789,0A8.727,8.727,0,0,1,0,10.9" transform="translate(27.495 27.992) rotate(-176)" fill="none" stroke="#1015be" stroke-linecap="round" stroke-width="4"/>
  </g>
</svg>
