<svg xmlns="http://www.w3.org/2000/svg" xmlns:xlink="http://www.w3.org/1999/xlink" width="305" height="150.999" viewBox="0 0 305 150.999">
  <defs>
    <linearGradient id="linear-gradient" x1="0.015" y1="0.069" x2="0.986" y2="0.925" gradientUnits="objectBoundingBox">
      <stop offset="0" stop-color="#d84bbd"/>
      <stop offset="1" stop-color="#e31d79"/>
    </linearGradient>
  </defs>
  <g id="_1" data-name="1" transform="translate(-50 -622)">
    <g id="Group_57" data-name="Group 57" transform="translate(-3018 -1189)">
      <g id="Path_43" data-name="Path 43" transform="translate(3173 1811)" fill="#000000" opacity="0.996">
        <path d="M 98.5 44.76086807250977 L 0.5 44.76086807250977 L 0.5 15.9999942779541 C 0.5 11.85979461669922 2.112287521362305 7.9674072265625 5.039850234985352 5.039844512939453 C 7.96741247177124 2.112282037734985 11.85980033874512 0.4999946355819702 16 0.4999946355819702 L 83 0.4999946355819702 C 87.14019775390625 0.4999946355819702 91.03260040283203 2.112282037734985 93.96015930175781 5.039844512939453 C 96.88772583007812 7.9674072265625 98.5 11.85979461669922 98.5 15.9999942779541 L 98.5 44.76086807250977 Z" stroke="none"/>
        <path d="M 16 1.000003814697266 C 11.99334716796875 1.000003814697266 8.226516723632812 2.560272216796875 5.393402099609375 5.393405914306641 C 2.560264587402344 8.226524353027344 1 11.99335098266602 1 16.0000057220459 L 1 44.26086044311523 L 98 44.26086044311523 L 98 16.0000057220459 C 98 11.99335098266602 96.43973541259766 8.226524353027344 93.60659790039062 5.393405914306641 C 90.77348327636719 2.560272216796875 87.00665283203125 1.000003814697266 83 1.000003814697266 L 16 1.000003814697266 M 16 3.814697265625e-06 L 83 3.814697265625e-06 C 91.83656311035156 3.814697265625e-06 99 7.163444519042969 99 16.0000057220459 L 99 45.26086044311523 L 0 45.26086044311523 L 0 16.0000057220459 C 0 7.163444519042969 7.163436889648438 3.814697265625e-06 16 3.814697265625e-06 Z" stroke="none" fill="#493d63"/>
      </g>
      <rect id="Rectangle_61" data-name="Rectangle 61" width="101" height="3" transform="translate(3172 1854)" fill="#000000"/>
    </g>
    <g id="_1-2" data-name="1">
      <g id="Subtraction_5" data-name="Subtraction 5" transform="translate(694 1901)" fill="url(#linear-gradient)">
        <path d="M -354.0006103515625 -1128.500610351562 L -629.0001220703125 -1128.500610351562 C -632.8733520507812 -1128.500610351562 -636.5147094726562 -1130.008911132812 -639.2533569335938 -1132.74755859375 C -641.9920654296875 -1135.486206054688 -643.5003662109375 -1139.127685546875 -643.5003662109375 -1143.0009765625 L -643.5003662109375 -1208.999755859375 C -643.5003662109375 -1212.872924804688 -641.9920654296875 -1216.514282226562 -639.2533569335938 -1219.253051757812 C -636.5147094726562 -1221.99169921875 -632.8733520507812 -1223.5 -629.0001220703125 -1223.5 L -538.5001831054688 -1223.5 L -538.5001220703125 -1196.000122070312 C -538.5001220703125 -1191.859741210938 -536.8878784179688 -1187.96728515625 -533.9603271484375 -1185.039794921875 C -531.0330200195312 -1182.112182617188 -527.1408081054688 -1180.499877929688 -523.0007934570312 -1180.499877929688 L -456.0002136230469 -1180.499877929688 C -451.8599243164062 -1180.499877929688 -447.9674682617188 -1182.112182617188 -445.0399169921875 -1185.039794921875 C -442.1123046875 -1187.967407226562 -440.5 -1191.85986328125 -440.5 -1196.000122070312 L -440.5 -1223.5 L -354.0006103515625 -1223.5 C -350.1273803710938 -1223.5 -346.4859924316406 -1221.99169921875 -343.747314453125 -1219.253051757812 C -341.008544921875 -1216.51416015625 -339.5002136230469 -1212.872802734375 -339.5002136230469 -1208.999755859375 L -339.5002136230469 -1143.0009765625 C -339.5002136230469 -1139.127807617188 -341.008544921875 -1135.486450195312 -343.747314453125 -1132.74755859375 C -346.4859924316406 -1130.008911132812 -350.1273803710938 -1128.500610351562 -354.0006103515625 -1128.500610351562 Z" stroke="none"/>
        <path d="M -354.0006103515625 -1129.000610351562 C -350.2609252929688 -1129.000610351562 -346.7451171875 -1130.456909179688 -344.1008911132812 -1133.101196289062 C -341.45654296875 -1135.74560546875 -340.0002136230469 -1139.261352539062 -340.0002136230469 -1143.0009765625 L -340.0002136230469 -1208.999755859375 C -340.0002136230469 -1212.7392578125 -341.45654296875 -1216.255004882812 -344.1008911132812 -1218.8994140625 C -346.7451171875 -1221.543701171875 -350.2609252929688 -1223 -354.0006103515625 -1223 L -440 -1223 L -440 -1196.000122070312 C -440 -1191.726318359375 -441.664306640625 -1187.708374023438 -444.6863403320312 -1184.686157226562 C -447.7083435058594 -1181.664184570312 -451.7263793945312 -1179.999877929688 -456.0002136230469 -1179.999877929688 L -523.0007934570312 -1179.999877929688 C -527.2743530273438 -1179.999877929688 -531.2921142578125 -1181.664184570312 -534.3139038085938 -1184.686157226562 C -537.3358154296875 -1187.708129882812 -539.0001220703125 -1191.726196289062 -539.0001220703125 -1196.000122070312 L -539.0001831054688 -1223 L -629.0001220703125 -1223 C -632.73974609375 -1223 -636.2555541992188 -1221.543701171875 -638.8997802734375 -1218.8994140625 C -641.5440673828125 -1216.255126953125 -643.0003662109375 -1212.739379882812 -643.0003662109375 -1208.999755859375 L -643.0003662109375 -1143.0009765625 C -643.0003662109375 -1139.261108398438 -641.5440673828125 -1135.745361328125 -638.8997802734375 -1133.101196289062 C -636.2555541992188 -1130.456909179688 -632.73974609375 -1129.000610351562 -629.0001220703125 -1129.000610351562 L -354.0006103515625 -1129.000610351562 M -354.0006103515625 -1128.000610351562 L -629.0001220703125 -1128.000610351562 C -633.0068969726562 -1128.000610351562 -636.7738037109375 -1129.560913085938 -639.60693359375 -1132.39404296875 C -642.4401245117188 -1135.227172851562 -644.0003662109375 -1138.994140625 -644.0003662109375 -1143.0009765625 L -644.0003662109375 -1208.999755859375 C -644.0003662109375 -1213.006469726562 -642.4401245117188 -1216.773315429688 -639.60693359375 -1219.606567382812 C -636.7738037109375 -1222.439697265625 -633.0068969726562 -1224 -629.0001220703125 -1224 L -538.0001831054688 -1224 L -538.0001220703125 -1196.000122070312 C -538.0001220703125 -1191.993408203125 -536.43994140625 -1188.226440429688 -533.6068115234375 -1185.393310546875 C -530.7738647460938 -1182.560180664062 -527.0072631835938 -1180.999877929688 -523.0007934570312 -1180.999877929688 L -456.0002136230469 -1180.999877929688 C -451.993408203125 -1180.999877929688 -448.2265625 -1182.560180664062 -445.3934631347656 -1185.393310546875 C -442.560302734375 -1188.2265625 -441 -1191.993408203125 -441 -1196.000122070312 L -441 -1224 L -354.0006103515625 -1224 C -349.9938354492188 -1224 -346.2268676757812 -1222.439697265625 -343.3937683105469 -1219.606567382812 C -340.5605773925781 -1216.773315429688 -339.0002136230469 -1213.00634765625 -339.0002136230469 -1208.999755859375 L -339.0002136230469 -1143.0009765625 C -339.0002136230469 -1138.994262695312 -340.5605773925781 -1135.227294921875 -343.3937683105469 -1132.39404296875 C -346.2268676757812 -1129.560913085938 -349.9938354492188 -1128.000610351562 -354.0006103515625 -1128.000610351562 Z" stroke="none" fill="#493d63"/>
      </g>
      <text id="Shringara_Rasa" data-name="Shringara Rasa" transform="translate(138 743)" fill="#fff" font-size="15" font-family="SamarkanNormal, Samarkan" letter-spacing="0.2em"><tspan x="0" y="0">SHRINGARA RASA</tspan></text>
      <text id="Love" transform="translate(191 760)" fill="#fff" font-size="9" font-family="DM Sans" font-weight="800" letter-spacing="0.2em"><tspan x="0" y="0">LOVE</tspan></text>
      <g id="Group_12" data-name="Group 12" transform="translate(-80 -659)">
        <g id="Rectangle_40" data-name="Rectangle 40" transform="translate(246 1292)" fill="#f6dd4d" stroke="#493d63" stroke-width="1">
          <rect width="77" height="77" rx="10" stroke="none"/>
          <rect x="0.5" y="0.5" width="76" height="76" rx="9.5" fill="none"/>
        </g>
        <path id="Path_11" data-name="Path 11" d="M75.03,49.706V66.291A9,9,0,0,1,66.157,76l-56.021.011C4.533,76.349,0,72.733,0,66.37c0,0,47.854.222,59.737,0S75.03,49.706,75.03,49.706Z" transform="translate(246.969 1292)" fill="#e4ca49"/>
        <g id="Group_10" data-name="Group 10" transform="translate(145.91 5.145)">
          <path id="Union_3" data-name="Union 3" d="M10.839,15.6a4.985,4.985,0,0,1-3.767-1.459L3.535,10.607a5,5,0,0,1,7.071-7.071l.232.232.232-.232a5,5,0,0,1,7.071,7.071l-3.535,3.535a4.985,4.985,0,0,1-3.536,1.465Q10.955,15.606,10.839,15.6Z" transform="translate(113.636 1306.893)" fill="#f1677e"/>
          <path id="Union_4" data-name="Union 4" d="M10.839,15.6a4.985,4.985,0,0,1-3.767-1.459L3.535,10.607a5,5,0,0,1,7.071-7.071l.232.232.232-.232a5,5,0,0,1,7.071,7.071l-3.535,3.535a4.985,4.985,0,0,1-3.536,1.465Q10.955,15.606,10.839,15.6Z" transform="translate(140.867 1306.893)" fill="#f1677e"/>
          <path id="Path_12" data-name="Path 12" d="M137.433,1330.5s5.512-2.94,7.448,0-4.194,4.941-4.194,4.941,6.4,1.555,4.194,4.844-7.448,0-7.448,0" fill="none" stroke="#493d63" stroke-linecap="round" stroke-linejoin="round" stroke-width="2"/>
        </g>
      </g>
    </g>
  </g>
</svg>
